<svg width="225" height="100" viewBox="0 0 225 100" fill="none" xmlns="http://www.w3.org/2000/svg">
<g clip-path="url(#clip0_82_261)">
<rect width="225" height="100" rx="50" fill="#1E2337"/>
<path d="M98.88 35.04V37.3H95.16V49H92.36V37.3H88.64V35.04H98.88ZM107.403 49.14C106.096 49.14 104.896 48.8333 103.803 48.22C102.71 47.6067 101.843 46.76 101.203 45.68C100.563 44.5867 100.243 43.3533 100.243 41.98C100.243 40.62 100.563 39.4 101.203 38.32C101.843 37.2267 102.71 36.3733 103.803 35.76C104.896 35.1467 106.096 34.84 107.403 34.84C108.723 34.84 109.923 35.1467 111.003 35.76C112.096 36.3733 112.956 37.2267 113.583 38.32C114.223 39.4 114.543 40.62 114.543 41.98C114.543 43.3533 114.223 44.5867 113.583 45.68C112.956 46.76 112.096 47.6067 111.003 48.22C109.91 48.8333 108.71 49.14 107.403 49.14ZM107.403 46.64C108.243 46.64 108.983 46.4533 109.623 46.08C110.263 45.6933 110.763 45.1467 111.123 44.44C111.483 43.7333 111.663 42.9133 111.663 41.98C111.663 41.0467 111.483 40.2333 111.123 39.54C110.763 38.8333 110.263 38.2933 109.623 37.92C108.983 37.5467 108.243 37.36 107.403 37.36C106.563 37.36 105.816 37.5467 105.163 37.92C104.523 38.2933 104.023 38.8333 103.663 39.54C103.303 40.2333 103.123 41.0467 103.123 41.98C103.123 42.9133 103.303 43.7333 103.663 44.44C104.023 45.1467 104.523 45.6933 105.163 46.08C105.816 46.4533 106.563 46.64 107.403 46.64ZM128.566 49H125.766L119.426 39.42V49H116.626V35.02H119.426L125.766 44.62V35.02H128.566V49ZM140.979 35.04C142.445 35.04 143.732 35.3267 144.839 35.9C145.959 36.4733 146.819 37.2933 147.419 38.36C148.032 39.4133 148.339 40.64 148.339 42.04C148.339 43.44 148.032 44.6667 147.419 45.72C146.819 46.76 145.959 47.5667 144.839 48.14C143.732 48.7133 142.445 49 140.979 49H136.099V35.04H140.979ZM140.879 46.62C142.345 46.62 143.479 46.22 144.279 45.42C145.079 44.62 145.479 43.4933 145.479 42.04C145.479 40.5867 145.079 39.4533 144.279 38.64C143.479 37.8133 142.345 37.4 140.879 37.4H138.899V46.62H140.879ZM157.635 49L154.555 43.56H153.235V49H150.435V35.04H155.675C156.755 35.04 157.675 35.2333 158.435 35.62C159.195 35.9933 159.761 36.5067 160.135 37.16C160.521 37.8 160.715 38.52 160.715 39.32C160.715 40.24 160.448 41.0733 159.915 41.82C159.381 42.5533 158.588 43.06 157.535 43.34L160.875 49H157.635ZM153.235 41.46H155.575C156.335 41.46 156.901 41.28 157.275 40.92C157.648 40.5467 157.835 40.0333 157.835 39.38C157.835 38.74 157.648 38.2467 157.275 37.9C156.901 37.54 156.335 37.36 155.575 37.36H153.235V41.46ZM169.727 49.14C168.421 49.14 167.221 48.8333 166.127 48.22C165.034 47.6067 164.167 46.76 163.527 45.68C162.887 44.5867 162.567 43.3533 162.567 41.98C162.567 40.62 162.887 39.4 163.527 38.32C164.167 37.2267 165.034 36.3733 166.127 35.76C167.221 35.1467 168.421 34.84 169.727 34.84C171.047 34.84 172.247 35.1467 173.327 35.76C174.421 36.3733 175.281 37.2267 175.907 38.32C176.547 39.4 176.867 40.62 176.867 41.98C176.867 43.3533 176.547 44.5867 175.907 45.68C175.281 46.76 174.421 47.6067 173.327 48.22C172.234 48.8333 171.034 49.14 169.727 49.14ZM169.727 46.64C170.567 46.64 171.307 46.4533 171.947 46.08C172.587 45.6933 173.087 45.1467 173.447 44.44C173.807 43.7333 173.987 42.9133 173.987 41.98C173.987 41.0467 173.807 40.2333 173.447 39.54C173.087 38.8333 172.587 38.2933 171.947 37.92C171.307 37.5467 170.567 37.36 169.727 37.36C168.887 37.36 168.141 37.5467 167.487 37.92C166.847 38.2933 166.347 38.8333 165.987 39.54C165.627 40.2333 165.447 41.0467 165.447 41.98C165.447 42.9133 165.627 43.7333 165.987 44.44C166.347 45.1467 166.847 45.6933 167.487 46.08C168.141 46.4533 168.887 46.64 169.727 46.64ZM189.13 39.36C189.13 40.1067 188.95 40.8067 188.59 41.46C188.244 42.1133 187.69 42.64 186.93 43.04C186.184 43.44 185.237 43.64 184.09 43.64H181.75V49H178.95V35.04H184.09C185.17 35.04 186.09 35.2267 186.85 35.6C187.61 35.9733 188.177 36.4867 188.55 37.14C188.937 37.7933 189.13 38.5333 189.13 39.36ZM183.97 41.38C184.744 41.38 185.317 41.2067 185.69 40.86C186.064 40.5 186.25 40 186.25 39.36C186.25 38 185.49 37.32 183.97 37.32H181.75V41.38H183.97Z" fill="#F7F9FB"/>
<path d="M92.048 56.424V57.016H90.528V62H89.8V57.016H88.272V56.424H92.048ZM95.1201 57.536C95.4508 57.536 95.7495 57.608 96.0161 57.752C96.2828 57.8907 96.4908 58.1013 96.6401 58.384C96.7948 58.6667 96.8721 59.0107 96.8721 59.416V62H96.1521V59.52C96.1521 59.0827 96.0428 58.7493 95.8241 58.52C95.6055 58.2853 95.3068 58.168 94.9281 58.168C94.5441 58.168 94.2375 58.288 94.0081 58.528C93.7841 58.768 93.6721 59.1173 93.6721 59.576V62H92.9441V56.08H93.6721V58.24C93.8161 58.016 94.0135 57.8427 94.2641 57.72C94.5201 57.5973 94.8055 57.536 95.1201 57.536ZM102.061 59.64C102.061 59.7787 102.053 59.9253 102.037 60.08H98.5333C98.56 60.512 98.7066 60.8507 98.9733 61.096C99.2453 61.336 99.5733 61.456 99.9573 61.456C100.272 61.456 100.533 61.384 100.741 61.24C100.955 61.0907 101.104 60.8933 101.189 60.648H101.973C101.856 61.0693 101.621 61.4133 101.269 61.68C100.917 61.9413 100.48 62.072 99.9573 62.072C99.5413 62.072 99.168 61.9787 98.8373 61.792C98.512 61.6053 98.256 61.3413 98.0693 61C97.8826 60.6533 97.7893 60.2533 97.7893 59.8C97.7893 59.3467 97.88 58.9493 98.0613 58.608C98.2426 58.2667 98.496 58.0053 98.8213 57.824C99.152 57.6373 99.5306 57.544 99.9573 57.544C100.373 57.544 100.741 57.6347 101.061 57.816C101.381 57.9973 101.627 58.248 101.797 58.568C101.973 58.8827 102.061 59.24 102.061 59.64ZM101.309 59.488C101.309 59.2107 101.248 58.9733 101.125 58.776C101.003 58.5733 100.835 58.4213 100.621 58.32C100.413 58.2133 100.181 58.16 99.9253 58.16C99.5573 58.16 99.2426 58.2773 98.9813 58.512C98.7253 58.7467 98.5786 59.072 98.5413 59.488H101.309ZM108.307 56.424V57.016H105.883V58.896H107.851V59.488H105.883V62H105.155V56.424H108.307ZM113.074 57.616V62H112.346V61.352C112.208 61.576 112.013 61.752 111.762 61.88C111.517 62.0027 111.245 62.064 110.946 62.064C110.605 62.064 110.298 61.9947 110.026 61.856C109.754 61.712 109.538 61.4987 109.378 61.216C109.224 60.9333 109.146 60.5893 109.146 60.184V57.616H109.866V60.088C109.866 60.52 109.976 60.8533 110.194 61.088C110.413 61.3173 110.712 61.432 111.09 61.432C111.48 61.432 111.786 61.312 112.01 61.072C112.234 60.832 112.346 60.4827 112.346 60.024V57.616H113.074ZM115.192 58.216V60.8C115.192 61.0133 115.237 61.1653 115.328 61.256C115.418 61.3413 115.576 61.384 115.799 61.384H116.336V62H115.68C115.274 62 114.97 61.9067 114.768 61.72C114.565 61.5333 114.464 61.2267 114.464 60.8V58.216H113.896V57.616H114.464V56.512H115.192V57.616H116.336V58.216H115.192ZM121.106 57.616V62H120.378V61.352C120.239 61.576 120.044 61.752 119.794 61.88C119.548 62.0027 119.276 62.064 118.978 62.064C118.636 62.064 118.33 61.9947 118.058 61.856C117.786 61.712 117.57 61.4987 117.41 61.216C117.255 60.9333 117.178 60.5893 117.178 60.184V57.616H117.898V60.088C117.898 60.52 118.007 60.8533 118.226 61.088C118.444 61.3173 118.743 61.432 119.122 61.432C119.511 61.432 119.818 61.312 120.042 61.072C120.266 60.832 120.378 60.4827 120.378 60.024V57.616H121.106ZM123.063 58.328C123.191 58.0773 123.372 57.8827 123.607 57.744C123.847 57.6053 124.137 57.536 124.479 57.536V58.288H124.287C123.471 58.288 123.063 58.7307 123.063 59.616V62H122.335V57.616H123.063V58.328ZM129.319 59.64C129.319 59.7787 129.311 59.9253 129.295 60.08H125.791C125.818 60.512 125.964 60.8507 126.231 61.096C126.503 61.336 126.831 61.456 127.215 61.456C127.53 61.456 127.791 61.384 127.999 61.24C128.212 61.0907 128.362 60.8933 128.447 60.648H129.231C129.114 61.0693 128.879 61.4133 128.527 61.68C128.175 61.9413 127.738 62.072 127.215 62.072C126.799 62.072 126.426 61.9787 126.095 61.792C125.77 61.6053 125.514 61.3413 125.327 61C125.14 60.6533 125.047 60.2533 125.047 59.8C125.047 59.3467 125.138 58.9493 125.319 58.608C125.5 58.2667 125.754 58.0053 126.079 57.824C126.41 57.6373 126.788 57.544 127.215 57.544C127.631 57.544 127.999 57.6347 128.319 57.816C128.639 57.9973 128.884 58.248 129.055 58.568C129.231 58.8827 129.319 59.24 129.319 59.64ZM128.567 59.488C128.567 59.2107 128.506 58.9733 128.383 58.776C128.26 58.5733 128.092 58.4213 127.879 58.32C127.671 58.2133 127.439 58.16 127.183 58.16C126.815 58.16 126.5 58.2773 126.239 58.512C125.983 58.7467 125.836 59.072 125.799 59.488H128.567ZM134.325 62.072C133.914 62.072 133.541 61.9787 133.205 61.792C132.874 61.6053 132.613 61.3413 132.421 61C132.234 60.6533 132.141 60.2533 132.141 59.8C132.141 59.352 132.237 58.9573 132.429 58.616C132.626 58.2693 132.893 58.0053 133.229 57.824C133.565 57.6373 133.941 57.544 134.357 57.544C134.773 57.544 135.149 57.6373 135.485 57.824C135.821 58.0053 136.085 58.2667 136.277 58.608C136.474 58.9493 136.573 59.3467 136.573 59.8C136.573 60.2533 136.472 60.6533 136.269 61C136.072 61.3413 135.802 61.6053 135.461 61.792C135.12 61.9787 134.741 62.072 134.325 62.072ZM134.325 61.432C134.586 61.432 134.832 61.3707 135.061 61.248C135.29 61.1253 135.474 60.9413 135.613 60.696C135.757 60.4507 135.829 60.152 135.829 59.8C135.829 59.448 135.76 59.1493 135.621 58.904C135.482 58.6587 135.301 58.4773 135.077 58.36C134.853 58.2373 134.61 58.176 134.349 58.176C134.082 58.176 133.837 58.2373 133.613 58.36C133.394 58.4773 133.218 58.6587 133.085 58.904C132.952 59.1493 132.885 59.448 132.885 59.8C132.885 60.1573 132.949 60.4587 133.077 60.704C133.21 60.9493 133.386 61.1333 133.605 61.256C133.824 61.3733 134.064 61.432 134.325 61.432ZM139.314 58.216H138.394V62H137.666V58.216H137.098V57.616H137.666V57.304C137.666 56.8133 137.791 56.456 138.042 56.232C138.298 56.0027 138.706 55.888 139.266 55.888V56.496C138.946 56.496 138.719 56.56 138.586 56.688C138.458 56.8107 138.394 57.016 138.394 57.304V57.616H139.314V58.216ZM144.064 62.056C143.696 62.056 143.365 61.992 143.072 61.864C142.784 61.7307 142.557 61.5493 142.392 61.32C142.226 61.0853 142.141 60.816 142.136 60.512H142.912C142.938 60.7733 143.045 60.9947 143.232 61.176C143.424 61.352 143.701 61.44 144.064 61.44C144.41 61.44 144.682 61.3547 144.88 61.184C145.082 61.008 145.184 60.784 145.184 60.512C145.184 60.2987 145.125 60.1253 145.008 59.992C144.89 59.8587 144.744 59.7573 144.568 59.688C144.392 59.6187 144.154 59.544 143.856 59.464C143.488 59.368 143.192 59.272 142.968 59.176C142.749 59.08 142.56 58.9307 142.4 58.728C142.245 58.52 142.168 58.2427 142.168 57.896C142.168 57.592 142.245 57.3227 142.4 57.088C142.554 56.8533 142.77 56.672 143.048 56.544C143.33 56.416 143.653 56.352 144.016 56.352C144.538 56.352 144.965 56.4827 145.296 56.744C145.632 57.0053 145.821 57.352 145.864 57.784H145.064C145.037 57.5707 144.925 57.384 144.728 57.224C144.53 57.0587 144.269 56.976 143.944 56.976C143.64 56.976 143.392 57.056 143.2 57.216C143.008 57.3707 142.912 57.5893 142.912 57.872C142.912 58.0747 142.968 58.24 143.08 58.368C143.197 58.496 143.338 58.5947 143.504 58.664C143.674 58.728 143.912 58.8027 144.216 58.888C144.584 58.9893 144.88 59.0907 145.104 59.192C145.328 59.288 145.52 59.44 145.68 59.648C145.84 59.8507 145.92 60.128 145.92 60.48C145.92 60.752 145.848 61.008 145.704 61.248C145.56 61.488 145.346 61.6827 145.064 61.832C144.781 61.9813 144.448 62.056 144.064 62.056ZM147.879 58.216V60.8C147.879 61.0133 147.924 61.1653 148.015 61.256C148.106 61.3413 148.263 61.384 148.487 61.384H149.023V62H148.367C147.962 62 147.658 61.9067 147.455 61.72C147.252 61.5333 147.151 61.2267 147.151 60.8V58.216H146.583V57.616H147.151V56.512H147.879V57.616H149.023V58.216H147.879ZM151.817 62.072C151.406 62.072 151.033 61.9787 150.697 61.792C150.366 61.6053 150.105 61.3413 149.913 61C149.726 60.6533 149.633 60.2533 149.633 59.8C149.633 59.352 149.729 58.9573 149.921 58.616C150.118 58.2693 150.385 58.0053 150.721 57.824C151.057 57.6373 151.433 57.544 151.849 57.544C152.265 57.544 152.641 57.6373 152.977 57.824C153.313 58.0053 153.577 58.2667 153.769 58.608C153.966 58.9493 154.065 59.3467 154.065 59.8C154.065 60.2533 153.964 60.6533 153.761 61C153.564 61.3413 153.294 61.6053 152.953 61.792C152.612 61.9787 152.233 62.072 151.817 62.072ZM151.817 61.432C152.078 61.432 152.324 61.3707 152.553 61.248C152.782 61.1253 152.966 60.9413 153.105 60.696C153.249 60.4507 153.321 60.152 153.321 59.8C153.321 59.448 153.252 59.1493 153.113 58.904C152.974 58.6587 152.793 58.4773 152.569 58.36C152.345 58.2373 152.102 58.176 151.841 58.176C151.574 58.176 151.329 58.2373 151.105 58.36C150.886 58.4773 150.71 58.6587 150.577 58.904C150.444 59.1493 150.377 59.448 150.377 59.8C150.377 60.1573 150.441 60.4587 150.569 60.704C150.702 60.9493 150.878 61.1333 151.097 61.256C151.316 61.3733 151.556 61.432 151.817 61.432ZM155.75 58.328C155.878 58.0773 156.06 57.8827 156.294 57.744C156.534 57.6053 156.825 57.536 157.166 57.536V58.288H156.974C156.158 58.288 155.75 58.7307 155.75 59.616V62H155.022V57.616H155.75V58.328ZM157.735 59.792C157.735 59.344 157.825 58.952 158.007 58.616C158.188 58.2747 158.436 58.0107 158.751 57.824C159.071 57.6373 159.425 57.544 159.815 57.544C160.199 57.544 160.532 57.6267 160.815 57.792C161.097 57.9573 161.308 58.1653 161.447 58.416V57.616H162.183V62H161.447V61.184C161.303 61.44 161.087 61.6533 160.799 61.824C160.516 61.9893 160.185 62.072 159.807 62.072C159.417 62.072 159.065 61.976 158.751 61.784C158.436 61.592 158.188 61.3227 158.007 60.976C157.825 60.6293 157.735 60.2347 157.735 59.792ZM161.447 59.8C161.447 59.4693 161.38 59.1813 161.247 58.936C161.113 58.6907 160.932 58.504 160.703 58.376C160.479 58.2427 160.231 58.176 159.959 58.176C159.687 58.176 159.439 58.24 159.215 58.368C158.991 58.496 158.812 58.6827 158.679 58.928C158.545 59.1733 158.479 59.4613 158.479 59.792C158.479 60.128 158.545 60.4213 158.679 60.672C158.812 60.9173 158.991 61.1067 159.215 61.24C159.439 61.368 159.687 61.432 159.959 61.432C160.231 61.432 160.479 61.368 160.703 61.24C160.932 61.1067 161.113 60.9173 161.247 60.672C161.38 60.4213 161.447 60.1307 161.447 59.8ZM165.221 57.544C165.6 57.544 165.93 57.6267 166.213 57.792C166.501 57.9573 166.714 58.1653 166.853 58.416V57.616H167.589V62.096C167.589 62.496 167.504 62.8507 167.333 63.16C167.162 63.4747 166.917 63.72 166.597 63.896C166.282 64.072 165.914 64.16 165.493 64.16C164.917 64.16 164.437 64.024 164.053 63.752C163.669 63.48 163.442 63.1093 163.373 62.64H164.093C164.173 62.9067 164.338 63.12 164.589 63.28C164.84 63.4453 165.141 63.528 165.493 63.528C165.893 63.528 166.218 63.4027 166.469 63.152C166.725 62.9013 166.853 62.5493 166.853 62.096V61.176C166.709 61.432 166.496 61.6453 166.213 61.816C165.93 61.9867 165.6 62.072 165.221 62.072C164.832 62.072 164.477 61.976 164.157 61.784C163.842 61.592 163.594 61.3227 163.413 60.976C163.232 60.6293 163.141 60.2347 163.141 59.792C163.141 59.344 163.232 58.952 163.413 58.616C163.594 58.2747 163.842 58.0107 164.157 57.824C164.477 57.6373 164.832 57.544 165.221 57.544ZM166.853 59.8C166.853 59.4693 166.786 59.1813 166.653 58.936C166.52 58.6907 166.338 58.504 166.109 58.376C165.885 58.2427 165.637 58.176 165.365 58.176C165.093 58.176 164.845 58.24 164.621 58.368C164.397 58.496 164.218 58.6827 164.085 58.928C163.952 59.1733 163.885 59.4613 163.885 59.792C163.885 60.128 163.952 60.4213 164.085 60.672C164.218 60.9173 164.397 61.1067 164.621 61.24C164.845 61.368 165.093 61.432 165.365 61.432C165.637 61.432 165.885 61.368 166.109 61.24C166.338 61.1067 166.52 60.9173 166.653 60.672C166.786 60.4213 166.853 60.1307 166.853 59.8ZM172.819 59.64C172.819 59.7787 172.811 59.9253 172.795 60.08H169.291C169.318 60.512 169.464 60.8507 169.731 61.096C170.003 61.336 170.331 61.456 170.715 61.456C171.03 61.456 171.291 61.384 171.499 61.24C171.712 61.0907 171.862 60.8933 171.947 60.648H172.731C172.614 61.0693 172.379 61.4133 172.027 61.68C171.675 61.9413 171.238 62.072 170.715 62.072C170.299 62.072 169.926 61.9787 169.595 61.792C169.27 61.6053 169.014 61.3413 168.827 61C168.64 60.6533 168.547 60.2533 168.547 59.8C168.547 59.3467 168.638 58.9493 168.819 58.608C169 58.2667 169.254 58.0053 169.579 57.824C169.91 57.6373 170.288 57.544 170.715 57.544C171.131 57.544 171.499 57.6347 171.819 57.816C172.139 57.9973 172.384 58.248 172.555 58.568C172.731 58.8827 172.819 59.24 172.819 59.64ZM172.067 59.488C172.067 59.2107 172.006 58.9733 171.883 58.776C171.76 58.5733 171.592 58.4213 171.379 58.32C171.171 58.2133 170.939 58.16 170.683 58.16C170.315 58.16 170 58.2773 169.739 58.512C169.483 58.7467 169.336 59.072 169.299 59.488H172.067ZM176.289 56.904C176.15 56.904 176.033 56.856 175.937 56.76C175.841 56.664 175.793 56.5467 175.793 56.408C175.793 56.2693 175.841 56.152 175.937 56.056C176.033 55.96 176.15 55.912 176.289 55.912C176.422 55.912 176.534 55.96 176.625 56.056C176.721 56.152 176.769 56.2693 176.769 56.408C176.769 56.5467 176.721 56.664 176.625 56.76C176.534 56.856 176.422 56.904 176.289 56.904ZM176.641 57.616V62H175.913V57.616H176.641ZM179.434 62.072C179.098 62.072 178.796 62.016 178.53 61.904C178.263 61.7867 178.052 61.6267 177.898 61.424C177.743 61.216 177.658 60.9787 177.642 60.712H178.394C178.415 60.9307 178.516 61.1093 178.698 61.248C178.884 61.3867 179.127 61.456 179.426 61.456C179.703 61.456 179.922 61.3947 180.082 61.272C180.242 61.1493 180.322 60.9947 180.322 60.808C180.322 60.616 180.236 60.4747 180.066 60.384C179.895 60.288 179.631 60.1947 179.274 60.104C178.948 60.0187 178.682 59.9333 178.474 59.848C178.271 59.7573 178.095 59.6267 177.946 59.456C177.802 59.28 177.73 59.0507 177.73 58.768C177.73 58.544 177.796 58.3387 177.93 58.152C178.063 57.9653 178.252 57.8187 178.498 57.712C178.743 57.6 179.023 57.544 179.338 57.544C179.823 57.544 180.215 57.6667 180.514 57.912C180.812 58.1573 180.972 58.4933 180.994 58.92H180.266C180.25 58.6907 180.156 58.5067 179.986 58.368C179.82 58.2293 179.596 58.16 179.314 58.16C179.052 58.16 178.844 58.216 178.69 58.328C178.535 58.44 178.458 58.5867 178.458 58.768C178.458 58.912 178.503 59.032 178.594 59.128C178.69 59.2187 178.807 59.2933 178.946 59.352C179.09 59.4053 179.287 59.4667 179.538 59.536C179.852 59.6213 180.108 59.7067 180.306 59.792C180.503 59.872 180.671 59.9947 180.81 60.16C180.954 60.3253 181.028 60.5413 181.034 60.808C181.034 61.048 180.967 61.264 180.834 61.456C180.7 61.648 180.511 61.8 180.266 61.912C180.026 62.0187 179.748 62.072 179.434 62.072ZM188.49 56.424V62H187.762V59.472H184.922V62H184.194V56.424H184.922V58.872H187.762V56.424H188.49ZM193.733 59.64C193.733 59.7787 193.725 59.9253 193.709 60.08H190.205C190.232 60.512 190.379 60.8507 190.645 61.096C190.917 61.336 191.245 61.456 191.629 61.456C191.944 61.456 192.205 61.384 192.413 61.24C192.627 61.0907 192.776 60.8933 192.861 60.648H193.645C193.528 61.0693 193.293 61.4133 192.941 61.68C192.589 61.9413 192.152 62.072 191.629 62.072C191.213 62.072 190.84 61.9787 190.509 61.792C190.184 61.6053 189.928 61.3413 189.741 61C189.555 60.6533 189.461 60.2533 189.461 59.8C189.461 59.3467 189.552 58.9493 189.733 58.608C189.915 58.2667 190.168 58.0053 190.493 57.824C190.824 57.6373 191.203 57.544 191.629 57.544C192.045 57.544 192.413 57.6347 192.733 57.816C193.053 57.9973 193.299 58.248 193.469 58.568C193.645 58.8827 193.733 59.24 193.733 59.64ZM192.981 59.488C192.981 59.2107 192.92 58.9733 192.797 58.776C192.675 58.5733 192.507 58.4213 192.293 58.32C192.085 58.2133 191.853 58.16 191.597 58.16C191.229 58.16 190.915 58.2773 190.653 58.512C190.397 58.7467 190.251 59.072 190.213 59.488H192.981ZM195.422 58.328C195.55 58.0773 195.731 57.8827 195.966 57.744C196.206 57.6053 196.497 57.536 196.838 57.536V58.288H196.646C195.83 58.288 195.422 58.7307 195.422 59.616V62H194.694V57.616H195.422V58.328ZM201.679 59.64C201.679 59.7787 201.671 59.9253 201.655 60.08H198.151C198.177 60.512 198.324 60.8507 198.591 61.096C198.863 61.336 199.191 61.456 199.575 61.456C199.889 61.456 200.151 61.384 200.359 61.24C200.572 61.0907 200.721 60.8933 200.807 60.648H201.591C201.473 61.0693 201.239 61.4133 200.887 61.68C200.535 61.9413 200.097 62.072 199.575 62.072C199.159 62.072 198.785 61.9787 198.455 61.792C198.129 61.6053 197.873 61.3413 197.687 61C197.5 60.6533 197.407 60.2533 197.407 59.8C197.407 59.3467 197.497 58.9493 197.679 58.608C197.86 58.2667 198.113 58.0053 198.439 57.824C198.769 57.6373 199.148 57.544 199.575 57.544C199.991 57.544 200.359 57.6347 200.679 57.816C200.999 57.9973 201.244 58.248 201.415 58.568C201.591 58.8827 201.679 59.24 201.679 59.64ZM200.927 59.488C200.927 59.2107 200.865 58.9733 200.743 58.776C200.62 58.5733 200.452 58.4213 200.239 58.32C200.031 58.2133 199.799 58.16 199.543 58.16C199.175 58.16 198.86 58.2773 198.599 58.512C198.343 58.7467 198.196 59.072 198.159 59.488H200.927ZM202.871 62.048C202.733 62.048 202.615 62 202.519 61.904C202.423 61.808 202.375 61.6907 202.375 61.552C202.375 61.4133 202.423 61.296 202.519 61.2C202.615 61.104 202.733 61.056 202.871 61.056C203.005 61.056 203.117 61.104 203.207 61.2C203.303 61.296 203.351 61.4133 203.351 61.552C203.351 61.6907 203.303 61.808 203.207 61.904C203.117 62 203.005 62.048 202.871 62.048ZM91.912 72.76H89.48L89.032 74H88.264L90.28 68.456H91.12L93.128 74H92.36L91.912 72.76ZM91.704 72.168L90.696 69.352L89.688 72.168H91.704ZM96.1426 69.536C96.676 69.536 97.108 69.6987 97.4386 70.024C97.7693 70.344 97.9346 70.808 97.9346 71.416V74H97.2146V71.52C97.2146 71.0827 97.1053 70.7493 96.8866 70.52C96.668 70.2853 96.3693 70.168 95.9906 70.168C95.6066 70.168 95.3 70.288 95.0706 70.528C94.8466 70.768 94.7346 71.1173 94.7346 71.576V74H94.0066V69.616H94.7346V70.24C94.8786 70.016 95.0733 69.8427 95.3186 69.72C95.5693 69.5973 95.844 69.536 96.1426 69.536ZM98.8518 71.792C98.8518 71.344 98.9425 70.952 99.1238 70.616C99.3051 70.2747 99.5531 70.0107 99.8678 69.824C100.188 69.6373 100.545 69.544 100.94 69.544C101.281 69.544 101.598 69.624 101.892 69.784C102.185 69.9387 102.409 70.144 102.564 70.4V68.08H103.3V74H102.564V73.176C102.42 73.4373 102.206 73.6533 101.924 73.824C101.641 73.9893 101.31 74.072 100.932 74.072C100.542 74.072 100.188 73.976 99.8678 73.784C99.5531 73.592 99.3051 73.3227 99.1238 72.976C98.9425 72.6293 98.8518 72.2347 98.8518 71.792ZM102.564 71.8C102.564 71.4693 102.497 71.1813 102.364 70.936C102.23 70.6907 102.049 70.504 101.82 70.376C101.596 70.2427 101.348 70.176 101.076 70.176C100.804 70.176 100.556 70.24 100.332 70.368C100.108 70.496 99.9291 70.6827 99.7958 70.928C99.6625 71.1733 99.5958 71.4613 99.5958 71.792C99.5958 72.128 99.6625 72.4213 99.7958 72.672C99.9291 72.9173 100.108 73.1067 100.332 73.24C100.556 73.368 100.804 73.432 101.076 73.432C101.348 73.432 101.596 73.368 101.82 73.24C102.049 73.1067 102.23 72.9173 102.364 72.672C102.497 72.4213 102.564 72.1307 102.564 71.8ZM107.391 68.424V74H106.663V68.424H107.391ZM109.52 70.216V72.8C109.52 73.0133 109.565 73.1653 109.656 73.256C109.746 73.3413 109.904 73.384 110.128 73.384H110.664V74H110.008C109.602 74 109.298 73.9067 109.096 73.72C108.893 73.5333 108.792 73.2267 108.792 72.8V70.216H108.224V69.616H108.792V68.512H109.52V69.616H110.664V70.216H109.52ZM111.658 68.424H112.466L111.698 70.24H111.186L111.658 68.424ZM114.848 74.072C114.512 74.072 114.21 74.016 113.944 73.904C113.677 73.7867 113.466 73.6267 113.312 73.424C113.157 73.216 113.072 72.9787 113.056 72.712H113.808C113.829 72.9307 113.93 73.1093 114.112 73.248C114.298 73.3867 114.541 73.456 114.84 73.456C115.117 73.456 115.336 73.3947 115.496 73.272C115.656 73.1493 115.736 72.9947 115.736 72.808C115.736 72.616 115.65 72.4747 115.48 72.384C115.309 72.288 115.045 72.1947 114.688 72.104C114.362 72.0187 114.096 71.9333 113.888 71.848C113.685 71.7573 113.509 71.6267 113.36 71.456C113.216 71.28 113.144 71.0507 113.144 70.768C113.144 70.544 113.21 70.3387 113.344 70.152C113.477 69.9653 113.666 69.8187 113.912 69.712C114.157 69.6 114.437 69.544 114.752 69.544C115.237 69.544 115.629 69.6667 115.928 69.912C116.226 70.1573 116.386 70.4933 116.408 70.92H115.68C115.664 70.6907 115.57 70.5067 115.4 70.368C115.234 70.2293 115.01 70.16 114.728 70.16C114.466 70.16 114.258 70.216 114.104 70.328C113.949 70.44 113.872 70.5867 113.872 70.768C113.872 70.912 113.917 71.032 114.008 71.128C114.104 71.2187 114.221 71.2933 114.36 71.352C114.504 71.4053 114.701 71.4667 114.952 71.536C115.266 71.6213 115.522 71.7067 115.72 71.792C115.917 71.872 116.085 71.9947 116.224 72.16C116.368 72.3253 116.442 72.5413 116.448 72.808C116.448 73.048 116.381 73.264 116.248 73.456C116.114 73.648 115.925 73.8 115.68 73.912C115.44 74.0187 115.162 74.072 114.848 74.072ZM121.344 68.424C121.952 68.424 122.478 68.5387 122.92 68.768C123.368 68.992 123.71 69.3147 123.944 69.736C124.184 70.1573 124.304 70.6533 124.304 71.224C124.304 71.7947 124.184 72.2907 123.944 72.712C123.71 73.128 123.368 73.448 122.92 73.672C122.478 73.8907 121.952 74 121.344 74H119.608V68.424H121.344ZM121.344 73.4C122.064 73.4 122.614 73.2107 122.992 72.832C123.371 72.448 123.56 71.912 123.56 71.224C123.56 70.5307 123.368 69.9893 122.984 69.6C122.606 69.2107 122.059 69.016 121.344 69.016H120.336V73.4H121.344ZM129.264 71.64C129.264 71.7787 129.256 71.9253 129.24 72.08H125.736C125.763 72.512 125.91 72.8507 126.176 73.096C126.448 73.336 126.776 73.456 127.16 73.456C127.475 73.456 127.736 73.384 127.944 73.24C128.158 73.0907 128.307 72.8933 128.392 72.648H129.176C129.059 73.0693 128.824 73.4133 128.472 73.68C128.12 73.9413 127.683 74.072 127.16 74.072C126.744 74.072 126.371 73.9787 126.04 73.792C125.715 73.6053 125.459 73.3413 125.272 73C125.086 72.6533 124.992 72.2533 124.992 71.8C124.992 71.3467 125.083 70.9493 125.264 70.608C125.446 70.2667 125.699 70.0053 126.024 69.824C126.355 69.6373 126.734 69.544 127.16 69.544C127.576 69.544 127.944 69.6347 128.264 69.816C128.584 69.9973 128.83 70.248 129 70.568C129.176 70.8827 129.264 71.24 129.264 71.64ZM128.512 71.488C128.512 71.2107 128.451 70.9733 128.328 70.776C128.206 70.5733 128.038 70.4213 127.824 70.32C127.616 70.2133 127.384 70.16 127.128 70.16C126.76 70.16 126.446 70.2773 126.184 70.512C125.928 70.7467 125.782 71.072 125.744 71.488H128.512ZM129.953 71.8C129.953 71.3467 130.044 70.952 130.225 70.616C130.407 70.2747 130.657 70.0107 130.977 69.824C131.303 69.6373 131.673 69.544 132.089 69.544C132.628 69.544 133.071 69.6747 133.417 69.936C133.769 70.1973 134.001 70.56 134.113 71.024H133.329C133.255 70.7573 133.108 70.5467 132.889 70.392C132.676 70.2373 132.409 70.16 132.089 70.16C131.673 70.16 131.337 70.304 131.081 70.592C130.825 70.8747 130.697 71.2773 130.697 71.8C130.697 72.328 130.825 72.736 131.081 73.024C131.337 73.312 131.673 73.456 132.089 73.456C132.409 73.456 132.676 73.3813 132.889 73.232C133.103 73.0827 133.249 72.8693 133.329 72.592H134.113C133.996 73.04 133.761 73.4 133.409 73.672C133.057 73.9387 132.617 74.072 132.089 74.072C131.673 74.072 131.303 73.9787 130.977 73.792C130.657 73.6053 130.407 73.3413 130.225 73C130.044 72.6587 129.953 72.2587 129.953 71.8ZM139.085 71.64C139.085 71.7787 139.077 71.9253 139.061 72.08H135.557C135.583 72.512 135.73 72.8507 135.997 73.096C136.269 73.336 136.597 73.456 136.981 73.456C137.295 73.456 137.557 73.384 137.765 73.24C137.978 73.0907 138.127 72.8933 138.213 72.648H138.997C138.879 73.0693 138.645 73.4133 138.293 73.68C137.941 73.9413 137.503 74.072 136.981 74.072C136.565 74.072 136.191 73.9787 135.861 73.792C135.535 73.6053 135.279 73.3413 135.093 73C134.906 72.6533 134.813 72.2533 134.813 71.8C134.813 71.3467 134.903 70.9493 135.085 70.608C135.266 70.2667 135.519 70.0053 135.845 69.824C136.175 69.6373 136.554 69.544 136.981 69.544C137.397 69.544 137.765 69.6347 138.085 69.816C138.405 69.9973 138.65 70.248 138.821 70.568C138.997 70.8827 139.085 71.24 139.085 71.64ZM138.333 71.488C138.333 71.2107 138.271 70.9733 138.149 70.776C138.026 70.5733 137.858 70.4213 137.645 70.32C137.437 70.2133 137.205 70.16 136.949 70.16C136.581 70.16 136.266 70.2773 136.005 70.512C135.749 70.7467 135.602 71.072 135.565 71.488H138.333ZM142.182 69.536C142.715 69.536 143.147 69.6987 143.478 70.024C143.808 70.344 143.974 70.808 143.974 71.416V74H143.254V71.52C143.254 71.0827 143.144 70.7493 142.926 70.52C142.707 70.2853 142.408 70.168 142.03 70.168C141.646 70.168 141.339 70.288 141.11 70.528C140.886 70.768 140.774 71.1173 140.774 71.576V74H140.046V69.616H140.774V70.24C140.918 70.016 141.112 69.8427 141.358 69.72C141.608 69.5973 141.883 69.536 142.182 69.536ZM146.051 70.216V72.8C146.051 73.0133 146.096 73.1653 146.187 73.256C146.278 73.3413 146.435 73.384 146.659 73.384H147.195V74H146.539C146.134 74 145.83 73.9067 145.627 73.72C145.424 73.5333 145.323 73.2267 145.323 72.8V70.216H144.755V69.616H145.323V68.512H146.051V69.616H147.195V70.216H146.051ZM148.805 70.328C148.933 70.0773 149.114 69.8827 149.349 69.744C149.589 69.6053 149.88 69.536 150.221 69.536V70.288H150.029C149.213 70.288 148.805 70.7307 148.805 71.616V74H148.077V69.616H148.805V70.328ZM150.789 71.792C150.789 71.344 150.88 70.952 151.061 70.616C151.243 70.2747 151.491 70.0107 151.805 69.824C152.125 69.6373 152.48 69.544 152.869 69.544C153.253 69.544 153.587 69.6267 153.869 69.792C154.152 69.9573 154.363 70.1653 154.501 70.416V69.616H155.237V74H154.501V73.184C154.357 73.44 154.141 73.6533 153.853 73.824C153.571 73.9893 153.24 74.072 152.861 74.072C152.472 74.072 152.12 73.976 151.805 73.784C151.491 73.592 151.243 73.3227 151.061 72.976C150.88 72.6293 150.789 72.2347 150.789 71.792ZM154.501 71.8C154.501 71.4693 154.435 71.1813 154.301 70.936C154.168 70.6907 153.987 70.504 153.757 70.376C153.533 70.2427 153.285 70.176 153.013 70.176C152.741 70.176 152.493 70.24 152.269 70.368C152.045 70.496 151.867 70.6827 151.733 70.928C151.6 71.1733 151.533 71.4613 151.533 71.792C151.533 72.128 151.6 72.4213 151.733 72.672C151.867 72.9173 152.045 73.1067 152.269 73.24C152.493 73.368 152.741 73.432 153.013 73.432C153.285 73.432 153.533 73.368 153.757 73.24C153.987 73.1067 154.168 72.9173 154.301 72.672C154.435 72.4213 154.501 72.1307 154.501 71.8ZM157.196 68.08V74H156.468V68.08H157.196ZM158.812 68.904C158.674 68.904 158.556 68.856 158.46 68.76C158.364 68.664 158.316 68.5467 158.316 68.408C158.316 68.2693 158.364 68.152 158.46 68.056C158.556 67.96 158.674 67.912 158.812 67.912C158.946 67.912 159.058 67.96 159.148 68.056C159.244 68.152 159.292 68.2693 159.292 68.408C159.292 68.5467 159.244 68.664 159.148 68.76C159.058 68.856 158.946 68.904 158.812 68.904ZM159.164 69.616V74H158.436V69.616H159.164ZM160.949 73.4H163.101V74H160.117V73.4L162.245 70.208H160.133V69.616H163.085V70.208L160.949 73.4ZM168.046 71.64C168.046 71.7787 168.038 71.9253 168.022 72.08H164.518C164.544 72.512 164.691 72.8507 164.958 73.096C165.23 73.336 165.558 73.456 165.942 73.456C166.256 73.456 166.518 73.384 166.726 73.24C166.939 73.0907 167.088 72.8933 167.174 72.648H167.958C167.84 73.0693 167.606 73.4133 167.254 73.68C166.902 73.9413 166.464 74.072 165.942 74.072C165.526 74.072 165.152 73.9787 164.822 73.792C164.496 73.6053 164.24 73.3413 164.054 73C163.867 72.6533 163.774 72.2533 163.774 71.8C163.774 71.3467 163.864 70.9493 164.046 70.608C164.227 70.2667 164.48 70.0053 164.806 69.824C165.136 69.6373 165.515 69.544 165.942 69.544C166.358 69.544 166.726 69.6347 167.046 69.816C167.366 69.9973 167.611 70.248 167.782 70.568C167.958 70.8827 168.046 71.24 168.046 71.64ZM167.294 71.488C167.294 71.2107 167.232 70.9733 167.11 70.776C166.987 70.5733 166.819 70.4213 166.606 70.32C166.398 70.2133 166.166 70.16 165.91 70.16C165.542 70.16 165.227 70.2773 164.966 70.512C164.71 70.7467 164.563 71.072 164.526 71.488H167.294ZM168.735 71.792C168.735 71.344 168.825 70.952 169.007 70.616C169.188 70.2747 169.436 70.0107 169.751 69.824C170.071 69.6373 170.428 69.544 170.823 69.544C171.164 69.544 171.481 69.624 171.775 69.784C172.068 69.9387 172.292 70.144 172.447 70.4V68.08H173.183V74H172.447V73.176C172.303 73.4373 172.089 73.6533 171.807 73.824C171.524 73.9893 171.193 74.072 170.815 74.072C170.425 74.072 170.071 73.976 169.751 73.784C169.436 73.592 169.188 73.3227 169.007 72.976C168.825 72.6293 168.735 72.2347 168.735 71.792ZM172.447 71.8C172.447 71.4693 172.38 71.1813 172.247 70.936C172.113 70.6907 171.932 70.504 171.703 70.376C171.479 70.2427 171.231 70.176 170.959 70.176C170.687 70.176 170.439 70.24 170.215 70.368C169.991 70.496 169.812 70.6827 169.679 70.928C169.545 71.1733 169.479 71.4613 169.479 71.792C169.479 72.128 169.545 72.4213 169.679 72.672C169.812 72.9173 169.991 73.1067 170.215 73.24C170.439 73.368 170.687 73.432 170.959 73.432C171.231 73.432 171.479 73.368 171.703 73.24C171.932 73.1067 172.113 72.9173 172.247 72.672C172.38 72.4213 172.447 72.1307 172.447 71.8ZM174.645 74.048C174.506 74.048 174.389 74 174.293 73.904C174.197 73.808 174.149 73.6907 174.149 73.552C174.149 73.4133 174.197 73.296 174.293 73.2C174.389 73.104 174.506 73.056 174.645 73.056C174.778 73.056 174.89 73.104 174.981 73.2C175.077 73.296 175.125 73.4133 175.125 73.552C175.125 73.6907 175.077 73.808 174.981 73.904C174.89 74 174.778 74.048 174.645 74.048Z" fill="#D6D6D6"/>
<rect x="26.125" y="47.125" width="32.75" height="29.75" fill="url(#paint0_linear_82_261)" stroke="black" stroke-width="0.25"/>
<rect x="24.125" y="48.125" width="32.75" height="29.75" fill="url(#paint1_linear_82_261)" stroke="black" stroke-width="0.25"/>
<g filter="url(#filter0_i_82_261)">
<path d="M44.1591 33H73L59 47H26L44.1591 33Z" fill="url(#paint2_linear_82_261)"/>
</g>
<path d="M72.6973 33.125L58.9473 46.875H26.3662L44.2012 33.125H72.6973Z" stroke="black" stroke-width="0.25"/>
<g filter="url(#filter1_i_82_261)">
<path d="M43.1591 32H72L58 46H25L43.1591 32Z" fill="url(#paint3_linear_82_261)"/>
</g>
<path d="M71.6973 32.125L57.9473 45.875H25.3662L43.2012 32.125H71.6973Z" stroke="black" stroke-width="0.25"/>
<path d="M72.875 61.9502L59.125 76.6826V46.915L72.875 33.2988V61.9502Z" fill="url(#paint4_linear_82_261)" stroke="black" stroke-width="0.25"/>
<g filter="url(#filter2_d_82_261)">
<path d="M61 32.9178L74 20L74 47.0227L61 61V32.9178Z" fill="url(#paint5_linear_82_261)"/>
<path d="M73.875 46.9727L61.125 60.6816V32.9697L73.875 20.2998V46.9727Z" stroke="black" stroke-width="0.25"/>
</g>
<g filter="url(#filter3_d_82_261)">
<path d="M64 17.6575L76 6L76 30.3864L64 43V17.6575Z" fill="url(#paint6_linear_82_261)"/>
<path d="M75.875 30.335L64.125 42.6865V17.71L75.875 6.29492V30.335Z" stroke="black" stroke-width="0.25"/>
</g>
<rect x="26.125" y="47.125" width="32.75" height="29.75" fill="url(#paint7_linear_82_261)" stroke="black" stroke-width="0.25"/>
<rect x="24.125" y="48.125" width="32.75" height="29.75" fill="url(#paint8_linear_82_261)" stroke="black" stroke-width="0.25"/>
<g filter="url(#filter4_i_82_261)">
<path d="M44.1591 33H73L59 47H26L44.1591 33Z" fill="url(#paint9_linear_82_261)"/>
</g>
<path d="M72.6973 33.125L58.9473 46.875H26.3662L44.2012 33.125H72.6973Z" stroke="black" stroke-width="0.25"/>
<g filter="url(#filter5_i_82_261)">
<path d="M43.1591 32H72L58 46H25L43.1591 32Z" fill="url(#paint10_linear_82_261)"/>
</g>
<path d="M71.6973 32.125L57.9473 45.875H25.3662L43.2012 32.125H71.6973Z" stroke="black" stroke-width="0.25"/>
<path d="M72.875 61.9502L59.125 76.6826V46.915L72.875 33.2988V61.9502Z" fill="url(#paint11_linear_82_261)" stroke="black" stroke-width="0.25"/>
<g filter="url(#filter6_d_82_261)">
<path d="M61 32.9178L74 20L74 47.0227L61 61V32.9178Z" fill="url(#paint12_linear_82_261)"/>
<path d="M73.875 46.9727L61.125 60.6816V32.9697L73.875 20.2998V46.9727Z" stroke="black" stroke-width="0.25"/>
</g>
<g filter="url(#filter7_d_82_261)">
<path d="M64 17.6575L76 6L76 30.3864L64 43V17.6575Z" fill="url(#paint13_linear_82_261)"/>
<path d="M75.875 30.335L64.125 42.6865V17.71L75.875 6.29492V30.335Z" stroke="black" stroke-width="0.25"/>
</g>
</g>
<defs>
<filter id="filter0_i_82_261" x="26" y="33" width="47" height="14" filterUnits="userSpaceOnUse" color-interpolation-filters="sRGB">
<feFlood flood-opacity="0" result="BackgroundImageFix"/>
<feBlend mode="normal" in="SourceGraphic" in2="BackgroundImageFix" result="shape"/>
<feColorMatrix in="SourceAlpha" type="matrix" values="0 0 0 0 0 0 0 0 0 0 0 0 0 0 0 0 0 0 127 0" result="hardAlpha"/>
<feOffset dx="4" dy="11"/>
<feComposite in2="hardAlpha" operator="arithmetic" k2="-1" k3="1"/>
<feColorMatrix type="matrix" values="0 0 0 0 0 0 0 0 0 0 0 0 0 0 0 0 0 0 0.25 0"/>
<feBlend mode="luminosity" in2="shape" result="effect1_innerShadow_82_261"/>
</filter>
<filter id="filter1_i_82_261" x="25" y="32" width="47" height="14" filterUnits="userSpaceOnUse" color-interpolation-filters="sRGB">
<feFlood flood-opacity="0" result="BackgroundImageFix"/>
<feBlend mode="normal" in="SourceGraphic" in2="BackgroundImageFix" result="shape"/>
<feColorMatrix in="SourceAlpha" type="matrix" values="0 0 0 0 0 0 0 0 0 0 0 0 0 0 0 0 0 0 127 0" result="hardAlpha"/>
<feOffset dx="4" dy="11"/>
<feComposite in2="hardAlpha" operator="arithmetic" k2="-1" k3="1"/>
<feColorMatrix type="matrix" values="0 0 0 0 0 0 0 0 0 0 0 0 0 0 0 0 0 0 0.25 0"/>
<feBlend mode="luminosity" in2="shape" result="effect1_innerShadow_82_261"/>
</filter>
<filter id="filter2_d_82_261" x="57" y="20" width="21" height="52" filterUnits="userSpaceOnUse" color-interpolation-filters="sRGB">
<feFlood flood-opacity="0" result="BackgroundImageFix"/>
<feColorMatrix in="SourceAlpha" type="matrix" values="0 0 0 0 0 0 0 0 0 0 0 0 0 0 0 0 0 0 127 0" result="hardAlpha"/>
<feOffset dy="7"/>
<feGaussianBlur stdDeviation="2"/>
<feComposite in2="hardAlpha" operator="out"/>
<feColorMatrix type="matrix" values="0 0 0 0 0 0 0 0 0 0 0 0 0 0 0 0 0 0 0.25 0"/>
<feBlend mode="normal" in2="BackgroundImageFix" result="effect1_dropShadow_82_261"/>
<feBlend mode="normal" in="SourceGraphic" in2="effect1_dropShadow_82_261" result="shape"/>
</filter>
<filter id="filter3_d_82_261" x="60" y="6" width="20" height="46" filterUnits="userSpaceOnUse" color-interpolation-filters="sRGB">
<feFlood flood-opacity="0" result="BackgroundImageFix"/>
<feColorMatrix in="SourceAlpha" type="matrix" values="0 0 0 0 0 0 0 0 0 0 0 0 0 0 0 0 0 0 127 0" result="hardAlpha"/>
<feOffset dy="5"/>
<feGaussianBlur stdDeviation="2"/>
<feComposite in2="hardAlpha" operator="out"/>
<feColorMatrix type="matrix" values="0 0 0 0 0 0 0 0 0 0 0 0 0 0 0 0 0 0 0.25 0"/>
<feBlend mode="normal" in2="BackgroundImageFix" result="effect1_dropShadow_82_261"/>
<feBlend mode="normal" in="SourceGraphic" in2="effect1_dropShadow_82_261" result="shape"/>
</filter>
<filter id="filter4_i_82_261" x="26" y="33" width="47" height="14" filterUnits="userSpaceOnUse" color-interpolation-filters="sRGB">
<feFlood flood-opacity="0" result="BackgroundImageFix"/>
<feBlend mode="normal" in="SourceGraphic" in2="BackgroundImageFix" result="shape"/>
<feColorMatrix in="SourceAlpha" type="matrix" values="0 0 0 0 0 0 0 0 0 0 0 0 0 0 0 0 0 0 127 0" result="hardAlpha"/>
<feOffset dx="4" dy="11"/>
<feComposite in2="hardAlpha" operator="arithmetic" k2="-1" k3="1"/>
<feColorMatrix type="matrix" values="0 0 0 0 0 0 0 0 0 0 0 0 0 0 0 0 0 0 0.25 0"/>
<feBlend mode="luminosity" in2="shape" result="effect1_innerShadow_82_261"/>
</filter>
<filter id="filter5_i_82_261" x="25" y="32" width="47" height="14" filterUnits="userSpaceOnUse" color-interpolation-filters="sRGB">
<feFlood flood-opacity="0" result="BackgroundImageFix"/>
<feBlend mode="normal" in="SourceGraphic" in2="BackgroundImageFix" result="shape"/>
<feColorMatrix in="SourceAlpha" type="matrix" values="0 0 0 0 0 0 0 0 0 0 0 0 0 0 0 0 0 0 127 0" result="hardAlpha"/>
<feOffset dx="4" dy="11"/>
<feComposite in2="hardAlpha" operator="arithmetic" k2="-1" k3="1"/>
<feColorMatrix type="matrix" values="0 0 0 0 0 0 0 0 0 0 0 0 0 0 0 0 0 0 0.25 0"/>
<feBlend mode="luminosity" in2="shape" result="effect1_innerShadow_82_261"/>
</filter>
<filter id="filter6_d_82_261" x="57" y="20" width="21" height="52" filterUnits="userSpaceOnUse" color-interpolation-filters="sRGB">
<feFlood flood-opacity="0" result="BackgroundImageFix"/>
<feColorMatrix in="SourceAlpha" type="matrix" values="0 0 0 0 0 0 0 0 0 0 0 0 0 0 0 0 0 0 127 0" result="hardAlpha"/>
<feOffset dy="7"/>
<feGaussianBlur stdDeviation="2"/>
<feComposite in2="hardAlpha" operator="out"/>
<feColorMatrix type="matrix" values="0 0 0 0 0 0 0 0 0 0 0 0 0 0 0 0 0 0 0.25 0"/>
<feBlend mode="normal" in2="BackgroundImageFix" result="effect1_dropShadow_82_261"/>
<feBlend mode="normal" in="SourceGraphic" in2="effect1_dropShadow_82_261" result="shape"/>
</filter>
<filter id="filter7_d_82_261" x="60" y="6" width="20" height="46" filterUnits="userSpaceOnUse" color-interpolation-filters="sRGB">
<feFlood flood-opacity="0" result="BackgroundImageFix"/>
<feColorMatrix in="SourceAlpha" type="matrix" values="0 0 0 0 0 0 0 0 0 0 0 0 0 0 0 0 0 0 127 0" result="hardAlpha"/>
<feOffset dy="5"/>
<feGaussianBlur stdDeviation="2"/>
<feComposite in2="hardAlpha" operator="out"/>
<feColorMatrix type="matrix" values="0 0 0 0 0 0 0 0 0 0 0 0 0 0 0 0 0 0 0.25 0"/>
<feBlend mode="normal" in2="BackgroundImageFix" result="effect1_dropShadow_82_261"/>
<feBlend mode="normal" in="SourceGraphic" in2="effect1_dropShadow_82_261" result="shape"/>
</filter>
<linearGradient id="paint0_linear_82_261" x1="42.5" y1="47" x2="42.5" y2="77" gradientUnits="userSpaceOnUse">
<stop stop-color="#2D83EC"/>
<stop offset="1" stop-color="#1AC9FF"/>
</linearGradient>
<linearGradient id="paint1_linear_82_261" x1="40.5" y1="48" x2="40.5" y2="78" gradientUnits="userSpaceOnUse">
<stop stop-color="#2D83EC"/>
<stop offset="1" stop-color="#1AC9FF"/>
</linearGradient>
<linearGradient id="paint2_linear_82_261" x1="48.4318" y1="34" x2="48.4318" y2="47" gradientUnits="userSpaceOnUse">
<stop stop-color="#2D83EC"/>
<stop offset="1" stop-color="#1AC9FF"/>
</linearGradient>
<linearGradient id="paint3_linear_82_261" x1="47.4318" y1="33" x2="47.4318" y2="46" gradientUnits="userSpaceOnUse">
<stop stop-color="#2D83EC"/>
<stop offset="1" stop-color="#1AC9FF"/>
</linearGradient>
<linearGradient id="paint4_linear_82_261" x1="66" y1="33" x2="66" y2="77" gradientUnits="userSpaceOnUse">
<stop stop-color="#2D83EC"/>
<stop offset="1" stop-color="#1AC9FF"/>
</linearGradient>
<linearGradient id="paint5_linear_82_261" x1="67.5" y1="20" x2="67.5" y2="61" gradientUnits="userSpaceOnUse">
<stop stop-color="#2D83EC"/>
<stop offset="1" stop-color="#1AC9FF"/>
</linearGradient>
<linearGradient id="paint6_linear_82_261" x1="70" y1="6" x2="70" y2="43" gradientUnits="userSpaceOnUse">
<stop stop-color="#2D83EC"/>
<stop offset="1" stop-color="#1AC9FF"/>
</linearGradient>
<linearGradient id="paint7_linear_82_261" x1="42.5" y1="47" x2="42.5" y2="77" gradientUnits="userSpaceOnUse">
<stop stop-color="#2D83EC"/>
<stop offset="1" stop-color="#1AC9FF"/>
</linearGradient>
<linearGradient id="paint8_linear_82_261" x1="40.5" y1="48" x2="40.5" y2="78" gradientUnits="userSpaceOnUse">
<stop stop-color="#2D83EC"/>
<stop offset="1" stop-color="#1AC9FF"/>
</linearGradient>
<linearGradient id="paint9_linear_82_261" x1="48.4318" y1="34" x2="48.4318" y2="47" gradientUnits="userSpaceOnUse">
<stop stop-color="#2D83EC"/>
<stop offset="1" stop-color="#1AC9FF"/>
</linearGradient>
<linearGradient id="paint10_linear_82_261" x1="47.4318" y1="33" x2="47.4318" y2="46" gradientUnits="userSpaceOnUse">
<stop stop-color="#2D83EC"/>
<stop offset="1" stop-color="#1AC9FF"/>
</linearGradient>
<linearGradient id="paint11_linear_82_261" x1="66" y1="33" x2="66" y2="77" gradientUnits="userSpaceOnUse">
<stop stop-color="#2D83EC"/>
<stop offset="1" stop-color="#1AC9FF"/>
</linearGradient>
<linearGradient id="paint12_linear_82_261" x1="67.5" y1="20" x2="67.5" y2="61" gradientUnits="userSpaceOnUse">
<stop stop-color="#2D83EC"/>
<stop offset="1" stop-color="#1AC9FF"/>
</linearGradient>
<linearGradient id="paint13_linear_82_261" x1="70" y1="6" x2="70" y2="43" gradientUnits="userSpaceOnUse">
<stop stop-color="#2D83EC"/>
<stop offset="1" stop-color="#1AC9FF"/>
</linearGradient>
<clipPath id="clip0_82_261">
<rect width="225" height="100" rx="50" fill="white"/>
</clipPath>
</defs>
</svg>
